<?xml version="1.0" standalone="no"?>
<!DOCTYPE svg PUBLIC "-//W3C//DTD SVG 20010904//EN"
 "http://www.w3.org/TR/2001/REC-SVG-20010904/DTD/svg10.dtd">
<svg version="1.0" xmlns="http://www.w3.org/2000/svg"
 width="1240.000000pt" height="700.000000pt" viewBox="0 0 1240.000000 700.000000"
 preserveAspectRatio="xMidYMid meet">

<g transform="translate(0.000000,700.000000) scale(0.100000,-0.100000)"
fill="#000000" stroke="none">
<path d="M7580 5371 c0 -537 -2 -620 -15 -631 -12 -10 -36 -1 -134 54 -74 41
-130 66 -149 66 -22 0 -147 -67 -434 -231 -222 -127 -413 -242 -425 -255 l-23
-25 0 -493 c0 -456 1 -495 18 -514 29 -35 833 -492 865 -492 36 0 819 448 860
491 l27 29 0 1170 0 1169 -22 25 c-13 14 -116 77 -231 141 -205 113 -208 115
-272 115 l-65 0 0 -619z m-141 -1262 l141 -81 0 -167 c0 -148 -2 -170 -17
-183 -26 -22 -268 -158 -282 -158 -12 0 -223 118 -273 152 l-28 19 0 163 c0
139 2 166 16 177 38 31 261 157 280 158 12 1 85 -35 163 -80z"/>
<path d="M2509 4654 c-228 -130 -422 -245 -431 -256 -17 -19 -18 -65 -18 -662
0 -673 0 -666 43 -666 24 0 472 253 510 288 l27 26 0 308 c0 237 3 316 14 341
10 25 37 46 131 100 65 38 131 71 146 74 22 4 53 -9 141 -58 62 -35 125 -75
141 -90 l27 -27 0 -314 c0 -231 4 -320 13 -338 15 -30 489 -308 527 -309 15
-1 31 4 38 11 9 9 12 167 12 651 l0 639 -27 27 c-37 35 -834 491 -860 491 -11
0 -207 -106 -434 -236z"/>
<path d="M9415 4864 c-16 -8 -207 -117 -423 -242 -297 -171 -397 -234 -408
-254 -12 -24 -14 -108 -12 -513 3 -469 4 -485 23 -504 11 -11 204 -124 428
-252 354 -200 413 -231 440 -226 45 8 525 276 532 297 3 9 3 24 -1 33 -3 9
-189 121 -413 248 -223 128 -412 239 -418 247 -9 11 -13 62 -13 172 0 150 1
157 23 177 37 33 255 153 278 153 22 0 257 -129 284 -157 12 -11 15 -42 15
-143 0 -106 3 -131 16 -145 10 -9 25 -14 35 -12 37 10 510 290 524 310 12 17
15 54 15 164 0 133 -1 143 -22 167 -22 24 -757 454 -824 482 -41 17 -42 17
-79 -2z"/>
<path d="M4274 4348 c2 -20 9 -32 16 -30 7 2 10 -3 7 -11 -3 -8 1 -14 9 -14
16 0 10 28 -14 65 -19 30 -23 28 -18 -10z"/>
<path d="M5835 4140 c-110 -201 -145 -254 -145 -222 0 4 -12 23 -27 41 l-28
33 3 -393 c2 -257 6 -397 13 -406 9 -10 30 -2 102 36 237 125 253 140 218 222
-11 27 -15 51 -10 56 18 18 29 207 29 515 0 304 -3 348 -20 348 -4 0 -65 -103
-135 -230z"/>
<path d="M4452 3708 c-55 -95 -121 -210 -147 -255 -26 -45 -45 -88 -42 -96 7
-18 826 -489 843 -485 9 2 -62 140 -219 423 -128 231 -253 457 -278 502 -24
46 -47 83 -50 83 -4 0 -52 -78 -107 -172z"/>
</g>
</svg>
